<svg width="151" height="34" viewBox="0 0 151 34" fill="none" xmlns="http://www.w3.org/2000/svg">
<path fill-rule="evenodd" clip-rule="evenodd" d="M19.2135 19.1649H28C28 26.8876 21.7309 33.15 14 33.15V24.5675C16.1926 23.2696 18.0035 21.4039 19.2135 19.1649Z" fill="#0053FF"/>
<path fill-rule="evenodd" clip-rule="evenodd" d="M8.78654 10.5825H0C0 18.3051 6.26915 24.5675 14 24.5675L14 15.9851C11.8074 14.6872 9.99652 12.8214 8.78654 10.5825Z" fill="#0053FF"/>
<path fill-rule="evenodd" clip-rule="evenodd" d="M19.2135 2H28C28 9.72261 21.7309 15.9851 14 15.9851L14 7.40258C16.1926 6.10466 18.0035 4.23891 19.2135 2Z" fill="#0053FF"/>
<path d="M40.88 9.4C42.2133 9.4 43.2667 9.68667 44.04 10.26C44.8133 10.8333 45.2 11.64 45.2 12.68C45.2 13.0667 45.1267 13.4133 44.98 13.72C44.8467 14.0267 44.6667 14.2933 44.44 14.52C44.2267 14.7333 43.98 14.9133 43.7 15.06C43.4333 15.2067 43.16 15.3133 42.88 15.38C43.2533 15.4467 43.6 15.56 43.92 15.72C44.2533 15.8667 44.54 16.0667 44.78 16.32C45.0333 16.5733 45.2267 16.88 45.36 17.24C45.5067 17.5867 45.58 17.9867 45.58 18.44C45.58 18.96 45.4667 19.44 45.24 19.88C45.0133 20.3067 44.6867 20.68 44.26 21C43.8467 21.32 43.34 21.5667 42.74 21.74C42.1533 21.9133 41.5 22 40.78 22H36.38V9.4H40.88ZM39.12 14.44H40.42C41.02 14.44 41.4933 14.3133 41.84 14.06C42.2 13.7933 42.38 13.4 42.38 12.88C42.38 12.4133 42.2133 12.0667 41.88 11.84C41.56 11.6 41.0933 11.48 40.48 11.48H39.12V14.44ZM39.12 19.92H40.42C41.1 19.92 41.66 19.7933 42.1 19.54C42.54 19.2733 42.76 18.82 42.76 18.18C42.76 17.58 42.5267 17.1533 42.06 16.9C41.5933 16.6333 41.02 16.5 40.34 16.5H39.12V19.92ZM53.7663 12.46H56.4263V22H54.4463L54.1663 20.92H54.0863C53.9396 21.0667 53.7663 21.22 53.5663 21.38C53.3796 21.5267 53.1529 21.6667 52.8863 21.8C52.6329 21.92 52.3396 22.02 52.0063 22.1C51.6863 22.18 51.3263 22.22 50.9263 22.22C49.8996 22.22 49.0863 21.9333 48.4863 21.36C47.8996 20.7867 47.6063 19.94 47.6063 18.82V12.46H50.2663V18.6C50.2663 19.1733 50.3996 19.5867 50.6663 19.84C50.9463 20.0933 51.2996 20.22 51.7263 20.22C52.2063 20.22 52.6129 20.12 52.9463 19.92C53.2929 19.72 53.5663 19.4867 53.7663 19.22V12.46ZM61.4772 22H58.8172V12.46H60.8972L61.2172 13.68C61.6439 13.24 62.1105 12.8933 62.6172 12.64C63.1239 12.3867 63.6972 12.26 64.3372 12.26C65.6972 12.26 66.6239 12.7533 67.1172 13.74C67.5439 13.2733 68.0305 12.9133 68.5772 12.66C69.1239 12.3933 69.7105 12.26 70.3372 12.26C71.3505 12.26 72.1239 12.5333 72.6572 13.08C73.2039 13.6267 73.4772 14.42 73.4772 15.46V22H70.8172V15.76C70.8172 15.3067 70.7039 14.9533 70.4772 14.7C70.2639 14.4333 69.9439 14.3 69.5172 14.3C69.1572 14.3 68.7905 14.3867 68.4172 14.56C68.0572 14.7333 67.7439 14.98 67.4772 15.3V22H64.8172V15.76C64.8172 15.3067 64.7039 14.9533 64.4772 14.7C64.2639 14.4333 63.9439 14.3 63.5172 14.3C63.1572 14.3 62.7905 14.4 62.4172 14.6C62.0572 14.7867 61.7439 15.0467 61.4772 15.38V22ZM76.1075 22V12.46H78.7675V22H76.1075ZM77.4475 10.42C76.9942 10.42 76.6408 10.2933 76.3875 10.04C76.1342 9.77333 76.0075 9.44667 76.0075 9.06C76.0075 8.67333 76.1342 8.35333 76.3875 8.1C76.6408 7.83333 76.9942 7.7 77.4475 7.7C77.8875 7.7 78.2342 7.83333 78.4875 8.1C78.7542 8.35333 78.8875 8.67333 78.8875 9.06C78.8875 9.44667 78.7608 9.77333 78.5075 10.04C78.2542 10.2933 77.9008 10.42 77.4475 10.42ZM87.0042 9.4H90.4642L92.2642 15.14C92.3442 15.3933 92.4242 15.6667 92.5042 15.96C92.5976 16.2533 92.6842 16.5467 92.7642 16.84C92.8442 17.1333 92.9176 17.42 92.9842 17.7C93.0509 17.98 93.1042 18.24 93.1442 18.48H93.2242C93.2642 18.2667 93.3176 18.02 93.3842 17.74C93.4509 17.4467 93.5242 17.1467 93.6042 16.84C93.6842 16.5333 93.7642 16.2333 93.8442 15.94C93.9242 15.6467 93.9976 15.38 94.0642 15.14L95.8042 9.4H99.2642L100.204 22H97.6242C97.5442 20.6133 97.4642 19.2267 97.3842 17.84C97.3042 16.4533 97.2509 15.0533 97.2242 13.64L97.2042 12H97.1442C96.9709 12.7333 96.7776 13.5 96.5642 14.3C96.3642 15.1 96.1709 15.8 95.9842 16.4L94.2042 22H92.0842L90.2642 16.38C90.0376 15.66 89.8242 14.9 89.6242 14.1C89.4242 13.3 89.2642 12.6 89.1442 12H89.0842C89.0842 12.48 89.0776 12.9867 89.0642 13.52C89.0509 14.04 89.0309 14.56 89.0042 15.08C88.9909 15.6 88.9709 16.1133 88.9442 16.62C88.9309 17.1133 88.9109 17.5667 88.8842 17.98L88.6442 22H86.1042L87.0042 9.4ZM102.844 13.3C103.418 12.9667 104.024 12.7133 104.664 12.54C105.304 12.3533 105.984 12.26 106.704 12.26C107.278 12.26 107.798 12.3267 108.264 12.46C108.744 12.5933 109.151 12.8067 109.484 13.1C109.831 13.38 110.091 13.7467 110.264 14.2C110.451 14.64 110.544 15.1733 110.544 15.8V22H108.484L108.244 21.02H108.164C107.858 21.3933 107.464 21.6867 106.984 21.9C106.518 22.1133 105.971 22.22 105.344 22.22C104.824 22.22 104.364 22.1467 103.964 22C103.564 21.84 103.224 21.6333 102.944 21.38C102.664 21.1133 102.451 20.8 102.304 20.44C102.171 20.08 102.104 19.6933 102.104 19.28C102.104 18.7333 102.218 18.2667 102.444 17.88C102.684 17.48 103.011 17.1533 103.424 16.9C103.838 16.6467 104.318 16.46 104.864 16.34C105.424 16.22 106.024 16.16 106.664 16.16H107.864V15.58C107.864 15.14 107.724 14.82 107.444 14.62C107.178 14.4067 106.798 14.3 106.304 14.3C105.918 14.3 105.518 14.36 105.104 14.48C104.704 14.6 104.258 14.7933 103.764 15.06L102.844 13.3ZM107.884 17.82L107.024 17.84C106.211 17.8667 105.644 18.0067 105.324 18.26C105.004 18.5 104.844 18.7933 104.844 19.14C104.844 19.5933 104.978 19.9067 105.244 20.08C105.524 20.24 105.838 20.32 106.184 20.32C106.531 20.32 106.858 20.22 107.164 20.02C107.484 19.82 107.724 19.5867 107.884 19.32V17.82ZM115.462 22H112.802V12.46H114.882L115.202 13.68C115.642 13.2267 116.122 12.88 116.642 12.64C117.175 12.3867 117.762 12.26 118.402 12.26C119.455 12.26 120.262 12.5467 120.822 13.12C121.382 13.6933 121.662 14.5267 121.662 15.62V22H119.002V15.9C119.002 15.4067 118.882 15.02 118.642 14.74C118.402 14.4467 118.048 14.3 117.582 14.3C117.235 14.3 116.868 14.4 116.482 14.6C116.108 14.7867 115.768 15.0467 115.462 15.38V22ZM124.311 22V12.46H126.971V22H124.311ZM125.651 10.42C125.197 10.42 124.844 10.2933 124.591 10.04C124.337 9.77333 124.211 9.44667 124.211 9.06C124.211 8.67333 124.337 8.35333 124.591 8.1C124.844 7.83333 125.197 7.7 125.651 7.7C126.091 7.7 126.437 7.83333 126.691 8.1C126.957 8.35333 127.091 8.67333 127.091 9.06C127.091 9.44667 126.964 9.77333 126.711 10.04C126.457 10.2933 126.104 10.42 125.651 10.42ZM129.618 22V12.46H131.678L131.978 14.18C132.205 13.6733 132.565 13.2267 133.058 12.84C133.551 12.4533 134.171 12.26 134.918 12.26C135.225 12.26 135.498 12.2933 135.738 12.36C135.978 12.4267 136.178 12.5067 136.338 12.6L135.898 14.7C135.751 14.62 135.565 14.5533 135.338 14.5C135.111 14.4333 134.845 14.4 134.538 14.4C133.885 14.4 133.338 14.62 132.898 15.06C132.471 15.4867 132.258 16.1933 132.258 17.18V22H129.618ZM137.278 13.3C137.851 12.9667 138.458 12.7133 139.098 12.54C139.738 12.3533 140.418 12.26 141.138 12.26C141.711 12.26 142.231 12.3267 142.698 12.46C143.178 12.5933 143.585 12.8067 143.918 13.1C144.265 13.38 144.525 13.7467 144.698 14.2C144.885 14.64 144.978 15.1733 144.978 15.8V22H142.918L142.678 21.02H142.598C142.291 21.3933 141.898 21.6867 141.418 21.9C140.951 22.1133 140.405 22.22 139.778 22.22C139.258 22.22 138.798 22.1467 138.398 22C137.998 21.84 137.658 21.6333 137.378 21.38C137.098 21.1133 136.885 20.8 136.738 20.44C136.605 20.08 136.538 19.6933 136.538 19.28C136.538 18.7333 136.651 18.2667 136.878 17.88C137.118 17.48 137.445 17.1533 137.858 16.9C138.271 16.6467 138.751 16.46 139.298 16.34C139.858 16.22 140.458 16.16 141.098 16.16H142.298V15.58C142.298 15.14 142.158 14.82 141.878 14.62C141.611 14.4067 141.231 14.3 140.738 14.3C140.351 14.3 139.951 14.36 139.538 14.48C139.138 14.6 138.691 14.7933 138.198 15.06L137.278 13.3ZM142.318 17.82L141.458 17.84C140.645 17.8667 140.078 18.0067 139.758 18.26C139.438 18.5 139.278 18.7933 139.278 19.14C139.278 19.5933 139.411 19.9067 139.678 20.08C139.958 20.24 140.271 20.32 140.618 20.32C140.965 20.32 141.291 20.22 141.598 20.02C141.918 19.82 142.158 19.5867 142.318 19.32V17.82ZM146.975 20.58C146.975 20.3533 147.015 20.14 147.095 19.94C147.188 19.74 147.308 19.5667 147.455 19.42C147.602 19.2733 147.768 19.16 147.955 19.08C148.155 19 148.362 18.96 148.575 18.96C149.002 18.96 149.368 19.1133 149.675 19.42C149.995 19.7267 150.155 20.1133 150.155 20.58C150.155 21.0867 149.995 21.4867 149.675 21.78C149.368 22.0733 149.002 22.22 148.575 22.22C148.148 22.22 147.775 22.0733 147.455 21.78C147.135 21.4867 146.975 21.0867 146.975 20.58Z" fill="#333333"/>
</svg>
