<?xml version="1.0" standalone="no"?>
<!DOCTYPE svg PUBLIC "-//W3C//DTD SVG 20010904//EN"
 "http://www.w3.org/TR/2001/REC-SVG-20010904/DTD/svg10.dtd">
<svg version="1.0" xmlns="http://www.w3.org/2000/svg"
 width="1024.000000pt" height="1024.000000pt" viewBox="0 0 1024.000000 1024.000000"
 preserveAspectRatio="xMidYMid meet">
<metadata>
Created by potrace 1.14, written by Peter Selinger 2001-2017
</metadata>
<g transform="translate(0.000000,1024.000000) scale(0.100000,-0.100000)"
fill="#000000" stroke="none">
<path d="M6774 10217 c-30 -60 -60 -112 -66 -115 -5 -2 -8 -10 -8 -18 0 -8 -4
-14 -10 -14 -5 0 -10 -5 -10 -11 0 -10 -135 -226 -150 -239 -3 -3 -16 -22 -30
-42 -14 -21 -28 -38 -32 -38 -5 0 -8 -7 -8 -15 0 -8 -4 -15 -10 -15 -5 0 -10
-6 -10 -14 0 -8 -3 -16 -8 -18 -4 -1 -23 -23 -42 -48 -40 -52 -61 -78 -75 -94
-5 -6 -32 -38 -60 -71 -132 -158 -335 -359 -526 -521 -142 -119 -148 -124
-158 -124 -5 0 -11 -4 -13 -8 -2 -7 -112 -89 -185 -140 -21 -14 -112 -73 -194
-125 -45 -28 -57 -41 -61 -66 -2 -17 -2 -35 2 -40 3 -6 3 -39 0 -75 -3 -36 -3
-72 0 -81 3 -8 3 -45 0 -82 -3 -38 -3 -94 0 -125 3 -31 3 -66 0 -78 -3 -11 -3
-55 0 -96 3 -40 3 -74 0 -74 -3 0 -3 -34 0 -76 3 -42 3 -80 0 -85 -3 -4 -3
-35 0 -67 3 -32 3 -69 0 -81 -3 -12 -3 -56 0 -97 3 -40 3 -74 0 -74 -3 0 -3
-34 0 -76 3 -42 3 -80 0 -85 -3 -4 -3 -35 0 -67 3 -32 3 -69 0 -81 -3 -12 -3
-56 0 -97 3 -40 3 -74 0 -74 -3 0 -3 -34 0 -76 3 -42 3 -80 0 -85 -3 -4 -3
-35 0 -67 3 -32 3 -69 0 -81 -3 -12 -3 -56 0 -97 3 -40 1 -74 -3 -74 -5 0 -6
-4 -3 -8 4 -7 7 -95 5 -167 0 -24 -1 -224 0 -245 0 -8 0 -57 0 -107 1 -82 3
-93 18 -94 79 -6 404 11 501 26 24 3 58 8 75 9 37 4 122 17 152 23 40 7 100
16 118 17 9 0 17 5 17 10 0 5 2 7 5 4 4 -3 25 -1 48 4 23 5 53 12 67 15 95 18
430 115 495 144 11 5 47 18 80 29 33 12 69 25 80 30 88 38 114 47 119 42 3 -3
6 0 6 6 0 7 4 12 10 12 5 0 39 13 75 30 36 16 70 30 74 30 5 0 11 3 13 8 3 7
90 51 106 53 4 0 12 5 18 10 6 5 33 21 60 35 27 15 67 37 89 50 22 13 51 29
65 36 14 7 30 16 35 20 41 31 270 178 276 178 4 0 9 4 11 8 2 5 30 28 63 53
33 24 62 46 65 49 3 3 21 17 40 31 19 15 45 36 58 47 13 11 41 35 64 54 92 74
321 295 422 407 120 133 325 396 391 501 15 24 33 49 39 56 6 6 20 28 31 50
11 21 23 41 26 44 8 6 139 230 139 238 0 2 15 30 32 61 18 31 33 62 35 70 1 8
8 18 15 22 7 5 10 9 6 9 -4 0 6 26 22 59 17 32 30 61 30 64 0 3 13 34 29 69
73 156 198 528 226 668 2 8 8 33 13 55 6 22 14 52 17 68 4 24 10 51 20 97 2 8
4 15 5 15 2 0 6 27 13 90 3 22 8 52 12 67 4 15 8 44 10 65 2 21 4 38 5 38 1 0
3 14 5 30 1 17 6 59 9 95 14 124 16 156 21 313 l6 157 -1408 0 -1408 0 -11
-23z"/>
<path d="M648 7489 c-12 -8 -1 -307 16 -454 3 -27 8 -72 11 -100 9 -85 15
-127 31 -210 8 -44 17 -91 20 -105 2 -14 9 -45 14 -70 6 -25 13 -55 15 -67 3
-13 7 -32 10 -43 3 -11 7 -28 9 -38 2 -9 10 -37 17 -62 7 -25 14 -49 14 -55 2
-14 84 -275 95 -302 15 -35 26 -63 51 -128 12 -33 32 -82 45 -110 12 -27 32
-72 44 -100 56 -127 168 -341 227 -434 19 -30 39 -64 44 -77 4 -13 13 -24 19
-24 5 0 10 -6 10 -13 0 -8 9 -24 20 -37 11 -13 20 -27 20 -31 0 -4 6 -14 13
-21 7 -7 30 -40 52 -73 21 -33 41 -62 45 -65 3 -3 30 -39 60 -80 30 -41 60
-81 67 -88 7 -7 29 -34 50 -59 21 -26 45 -55 53 -64 8 -9 49 -53 90 -99 78
-86 214 -223 271 -275 19 -16 68 -59 109 -95 41 -36 77 -67 80 -70 3 -3 25
-21 50 -40 25 -19 47 -38 48 -42 2 -4 10 -8 17 -8 7 0 15 -4 17 -8 3 -8 168
-131 214 -159 10 -7 64 -41 119 -76 97 -62 143 -89 253 -148 141 -78 164 -89
177 -89 7 0 15 -4 17 -8 2 -4 64 -34 138 -65 74 -32 146 -63 160 -69 14 -7 27
-12 30 -12 3 -1 19 -6 35 -13 81 -31 72 -27 110 -38 17 -4 36 -13 44 -19 8 -6
16 -10 18 -8 2 1 34 -7 71 -19 37 -12 74 -22 82 -24 8 -1 22 -5 30 -8 14 -5
172 -47 195 -51 6 -2 35 -8 65 -14 30 -6 66 -14 80 -16 14 -3 36 -8 50 -11 33
-7 64 -12 125 -21 28 -3 59 -8 70 -11 11 -2 40 -6 65 -8 48 -6 113 -13 170
-20 19 -2 114 -7 210 -10 96 -4 178 -10 182 -13 8 -8 15 -152 8 -152 -3 0 -5
-38 -5 -85 0 -47 2 -85 5 -85 3 0 3 -33 0 -72 -3 -40 -3 -101 0 -135 3 -34 3
-71 0 -83 -3 -12 -3 -55 0 -96 3 -42 3 -77 0 -79 -3 -2 -3 -36 0 -75 3 -39 3
-73 0 -75 -3 -2 -3 -33 0 -68 3 -36 3 -74 0 -86 -3 -12 -3 -56 0 -97 3 -42 3
-77 0 -79 -3 -2 -3 -36 0 -75 3 -39 3 -73 0 -75 -3 -2 -3 -33 0 -68 3 -36 3
-74 0 -86 -3 -12 -3 -56 0 -97 3 -42 3 -77 0 -79 -3 -2 -3 -36 0 -75 3 -39 3
-73 0 -75 -3 -2 -3 -33 0 -68 3 -36 3 -74 0 -86 -3 -12 -3 -56 0 -97 3 -42 3
-77 0 -79 -3 -2 -3 -36 0 -75 3 -39 2 -74 -2 -77 -5 -2 -6 -8 -3 -12 4 -7 6
-106 4 -161 -1 -8 0 -54 1 -103 l2 -87 137 5 c76 2 163 7 194 10 31 3 83 7
115 10 31 3 75 8 97 11 22 2 56 7 75 9 19 2 46 6 60 9 14 3 43 7 65 10 33 5
115 21 265 51 8 2 15 4 15 5 0 1 9 3 19 5 64 12 163 39 174 48 6 5 12 7 12 4
0 -4 18 0 40 8 22 8 40 11 40 8 0 -4 5 -2 12 5 7 7 21 12 33 12 12 0 26 5 33
12 7 7 12 9 12 5 0 -4 10 -2 23 5 12 6 29 13 38 15 17 3 235 84 274 103 158
73 218 98 229 98 5 0 12 4 15 9 3 4 33 22 66 38 67 34 232 126 285 159 110 69
245 161 248 168 2 4 8 8 13 8 6 0 15 5 22 10 13 11 71 55 109 82 33 24 89 70
110 91 10 9 18 15 18 12 0 -3 14 8 31 23 16 15 44 40 62 55 74 66 222 205 256
241 20 21 54 58 76 80 49 51 123 136 204 236 90 110 95 116 106 132 6 9 44 63
85 122 111 158 190 285 280 451 15 28 33 61 41 75 7 14 14 27 15 30 1 3 5 15
9 27 4 13 11 23 16 23 5 0 8 3 7 8 -1 4 11 34 27 67 16 33 29 62 30 65 0 3 10
25 21 50 11 25 31 72 44 105 12 33 26 69 31 80 9 22 69 189 69 192 1 3 3 11
26 83 10 30 19 60 20 65 2 6 5 19 8 30 2 11 16 64 30 118 15 55 28 109 30 120
3 12 5 22 6 22 1 0 3 9 5 20 1 11 5 36 8 55 3 19 10 55 16 80 5 25 13 65 16
90 6 46 9 72 19 145 4 22 8 63 10 90 3 28 5 50 6 50 4 0 13 190 14 295 l1 125
-1404 0 -1403 0 -22 -40 c-11 -22 -24 -41 -28 -43 -5 -2 -8 -8 -8 -13 0 -5
-33 -61 -72 -125 -40 -63 -79 -126 -86 -140 -7 -13 -17 -24 -23 -24 -5 0 -9
-4 -9 -10 0 -9 -60 -99 -85 -126 -5 -7 -19 -24 -30 -40 -11 -15 -26 -33 -32
-40 -7 -7 -13 -15 -13 -19 0 -3 -9 -16 -21 -28 -11 -12 -30 -35 -42 -50 -72
-92 -166 -196 -314 -344 -79 -79 -145 -143 -148 -143 -3 0 -13 -8 -23 -17 -41
-40 -161 -142 -227 -193 -22 -17 -47 -36 -55 -43 -9 -7 -38 -28 -65 -47 -28
-19 -55 -39 -62 -45 -33 -28 -43 -35 -47 -35 -3 0 -38 -23 -78 -50 -40 -28
-78 -50 -84 -50 -7 0 -14 -4 -16 -8 -1 -4 -19 -18 -39 -30 l-37 -22 -2 57 c-1
32 -1 65 -1 73 0 8 0 51 0 95 0 44 0 87 0 95 2 63 0 174 -4 181 -3 4 -2 10 3
12 4 3 5 38 2 77 -3 39 -3 73 0 75 3 2 3 33 0 68 -3 36 -3 74 0 86 3 12 3 56
0 97 -3 42 -3 77 0 79 3 2 3 36 0 75 -3 39 -3 73 0 75 3 2 3 33 0 68 -3 36 -3
74 0 86 3 12 3 56 0 97 -3 42 -3 77 0 79 3 2 3 36 0 75 -3 39 -2 74 2 77 5 2
6 8 4 12 -3 4 -5 34 -6 67 -1 143 -2 230 -1 244 0 8 0 42 0 75 -1 33 -1 66 0
73 2 26 2 40 2 117 0 44 0 87 0 95 1 8 1 42 0 75 0 33 0 67 0 75 0 8 0 49 0
90 0 41 0 82 0 90 2 88 -4 107 -35 125 -17 10 -33 21 -36 24 -3 3 -22 15 -42
25 -21 11 -38 23 -38 28 0 4 -7 8 -15 8 -8 0 -15 3 -15 8 0 4 -13 13 -28 20
-16 6 -38 21 -50 32 -12 11 -25 20 -30 20 -5 0 -17 9 -27 20 -10 11 -22 20
-27 20 -5 0 -15 6 -22 13 -7 6 -25 21 -41 32 -25 18 -124 96 -152 120 -7 5
-18 15 -25 20 -68 52 -191 167 -328 305 -175 176 -180 181 -280 305 -35 44
-67 82 -70 85 -3 3 -21 27 -40 53 -19 26 -52 70 -72 96 -21 27 -38 53 -38 58
0 6 -9 18 -20 28 -11 10 -20 24 -20 31 0 7 -3 14 -8 16 -14 6 -143 215 -189
306 -9 17 -24 32 -32 33 -72 5 -2785 3 -2793 -2z"/>
</g>
</svg>
